<svg width="409" height="712" viewBox="0 0 409 712" fill="none" xmlns="http://www.w3.org/2000/svg">
<rect x="241" width="712" height="60" transform="rotate(90 241 0)" fill="url(#paint0_linear_7_105)"/>
<line x1="245" y1="46" x2="270" y2="46" stroke="#F9A819" stroke-width="2"/>
<circle cx="274.5" cy="46.5" r="7.5" fill="#F9A819"/>
<path d="M296.206 40.364V42.83H292.858V53H289.78V42.83H286.432V40.364H296.206ZM309.613 40.364L305.131 53H301.279L296.797 40.364H300.073L303.205 49.904L306.355 40.364H309.613Z" fill="#F9A819"/>
<line x1="245" y1="185" x2="270" y2="185" stroke="#F9A819" stroke-width="2"/>
<circle cx="274.5" cy="185.5" r="7.5" fill="#EF5344"/>
<path d="M293.56 192L290.932 187.23H290.194V192H287.116V179.364H292.282C293.278 179.364 294.124 179.538 294.82 179.886C295.528 180.234 296.056 180.714 296.404 181.326C296.752 181.926 296.926 182.598 296.926 183.342C296.926 184.182 296.686 184.932 296.206 185.592C295.738 186.252 295.042 186.72 294.118 186.996L297.034 192H293.56ZM290.194 185.052H292.102C292.666 185.052 293.086 184.914 293.362 184.638C293.65 184.362 293.794 183.972 293.794 183.468C293.794 182.988 293.65 182.61 293.362 182.334C293.086 182.058 292.666 181.92 292.102 181.92H290.194V185.052ZM306.724 189.768H302.008L301.252 192H298.03L302.602 179.364H306.166L310.738 192H307.48L306.724 189.768ZM305.932 187.392L304.366 182.766L302.818 187.392H305.932ZM316.864 179.364C318.196 179.364 319.36 179.628 320.356 180.156C321.352 180.684 322.12 181.428 322.66 182.388C323.212 183.336 323.488 184.434 323.488 185.682C323.488 186.918 323.212 188.016 322.66 188.976C322.12 189.936 321.346 190.68 320.338 191.208C319.342 191.736 318.184 192 316.864 192H312.13V179.364H316.864ZM316.666 189.336C317.83 189.336 318.736 189.018 319.384 188.382C320.032 187.746 320.356 186.846 320.356 185.682C320.356 184.518 320.032 183.612 319.384 182.964C318.736 182.316 317.83 181.992 316.666 181.992H315.208V189.336H316.666ZM328.286 179.364V192H325.208V179.364H328.286ZM336.492 192.126C335.304 192.126 334.212 191.85 333.216 191.298C332.232 190.746 331.446 189.978 330.858 188.994C330.282 187.998 329.994 186.882 329.994 185.646C329.994 184.41 330.282 183.3 330.858 182.316C331.446 181.332 332.232 180.564 333.216 180.012C334.212 179.46 335.304 179.184 336.492 179.184C337.68 179.184 338.766 179.46 339.75 180.012C340.746 180.564 341.526 181.332 342.09 182.316C342.666 183.3 342.954 184.41 342.954 185.646C342.954 186.882 342.666 187.998 342.09 188.994C341.514 189.978 340.734 190.746 339.75 191.298C338.766 191.85 337.68 192.126 336.492 192.126ZM336.492 189.318C337.5 189.318 338.304 188.982 338.904 188.31C339.516 187.638 339.822 186.75 339.822 185.646C339.822 184.53 339.516 183.642 338.904 182.982C338.304 182.31 337.5 181.974 336.492 181.974C335.472 181.974 334.656 182.304 334.044 182.964C333.444 183.624 333.144 184.518 333.144 185.646C333.144 186.762 333.444 187.656 334.044 188.328C334.656 188.988 335.472 189.318 336.492 189.318Z" fill="#EF5344"/>
<line x1="177" y1="47" x2="152" y2="47" stroke="#EF5344" stroke-width="2"/>
<path d="M46.9975 33.364C48.3295 33.364 49.4935 33.628 50.4895 34.156C51.4855 34.684 52.2535 35.428 52.7935 36.388C53.3455 37.336 53.6215 38.434 53.6215 39.682C53.6215 40.918 53.3455 42.016 52.7935 42.976C52.2535 43.936 51.4795 44.68 50.4715 45.208C49.4755 45.736 48.3175 46 46.9975 46H42.2635V33.364H46.9975ZM46.7995 43.336C47.9635 43.336 48.8695 43.018 49.5175 42.382C50.1655 41.746 50.4895 40.846 50.4895 39.682C50.4895 38.518 50.1655 37.612 49.5175 36.964C48.8695 36.316 47.9635 35.992 46.7995 35.992H45.3415V43.336H46.7995ZM58.4196 33.364V46H55.3416V33.364L58.4196 33.364ZM69.0382 37.36C68.8102 36.94 68.4802 36.622 68.0482 36.406C67.6282 36.178 67.1302 36.064 66.5542 36.064C65.5582 36.064 64.7602 36.394 64.1602 37.054C63.5602 37.702 63.2602 38.572 63.2602 39.664C63.2602 40.828 63.5722 41.74 64.1962 42.4C64.8322 43.048 65.7022 43.372 66.8062 43.372C67.5622 43.372 68.1982 43.18 68.7142 42.796C69.2422 42.412 69.6262 41.86 69.8662 41.14H65.9602V38.872H72.6562V41.734C72.4282 42.502 72.0382 43.216 71.4862 43.876C70.9462 44.536 70.2562 45.07 69.4162 45.478C68.5762 45.886 67.6282 46.09 66.5722 46.09C65.3242 46.09 64.2082 45.82 63.2242 45.28C62.2522 44.728 61.4902 43.966 60.9382 42.994C60.3982 42.022 60.1282 40.912 60.1282 39.664C60.1282 38.416 60.3982 37.306 60.9382 36.334C61.4902 35.35 62.2522 34.588 63.2242 34.048C64.1962 33.496 65.3062 33.22 66.5542 33.22C68.0662 33.22 69.3382 33.586 70.3702 34.318C71.4142 35.05 72.1042 36.064 72.4402 37.36H69.0382ZM77.4391 33.364V46H74.3611V33.364H77.4391ZM88.7597 33.364V35.83H85.4117V46H82.3337V35.83H78.9857V33.364H88.7597ZM98.1705 43.768L93.4545 43.768L92.6985 46H89.4765L94.0485 33.364H97.6125L102.184 46H98.9265L98.1705 43.768ZM97.3785 41.392L95.8125 36.766L94.2645 41.392H97.3785ZM106.654 43.624H110.686V46H103.576V33.364H106.654V43.624ZM39.9182 60.364L39.9182 73H36.8402V65.422L34.0142 73H31.5302L28.6862 65.404L28.6862 73H25.6082L25.6082 60.364H29.2442L32.7902 69.112L36.3002 60.364H39.9182ZM49.9976 70.768H45.2816L44.5256 73H41.3036L45.8756 60.364H49.4396L54.0116 73H50.7536L49.9976 70.768ZM49.2056 68.392L47.6396 63.766L46.0916 68.392H49.2056ZM61.8471 73L59.2191 68.23H58.4811V73H55.4031L55.4031 60.364H60.5691C61.5651 60.364 62.4111 60.538 63.1071 60.886C63.8151 61.234 64.3431 61.714 64.6911 62.326C65.0391 62.926 65.2131 63.598 65.2131 64.342C65.2131 65.182 64.9731 65.932 64.4931 66.592C64.0251 67.252 63.3291 67.72 62.4051 67.996L65.3211 73H61.8471ZM58.4811 66.052H60.3891C60.9531 66.052 61.3731 65.914 61.6491 65.638C61.9371 65.362 62.0811 64.972 62.0811 64.468C62.0811 63.988 61.9371 63.61 61.6491 63.334C61.3731 63.058 60.9531 62.92 60.3891 62.92H58.4811V66.052ZM74.4713 73L70.2233 67.42V73H67.1453V60.364H70.2233V65.908L74.4353 60.364H78.0533L73.1573 66.556L78.2333 73H74.4713ZM82.7741 62.83V65.386H86.8961V67.762H82.7741V70.534H87.4361V73H79.6961V60.364H87.4361V62.83H82.7741ZM98.5244 60.364V62.83H95.1764V73H92.0984V62.83H88.7504V60.364H98.5244ZM103.147 60.364V73H100.069V60.364H103.147ZM116.682 73H113.604L108.456 65.206V73H105.378V60.364H108.456L113.604 68.194V60.364H116.682V73ZM127.301 64.36C127.073 63.94 126.743 63.622 126.311 63.406C125.891 63.178 125.393 63.064 124.817 63.064C123.821 63.064 123.023 63.394 122.423 64.054C121.823 64.702 121.523 65.572 121.523 66.664C121.523 67.828 121.835 68.74 122.459 69.4C123.095 70.048 123.965 70.372 125.069 70.372C125.825 70.372 126.461 70.18 126.977 69.796C127.505 69.412 127.889 68.86 128.129 68.14H124.223V65.872H130.919V68.734C130.691 69.502 130.301 70.216 129.749 70.876C129.209 71.536 128.519 72.07 127.679 72.478C126.839 72.886 125.891 73.09 124.835 73.09C123.587 73.09 122.471 72.82 121.487 72.28C120.515 71.728 119.753 70.966 119.201 69.994C118.661 69.022 118.391 67.912 118.391 66.664C118.391 65.416 118.661 64.306 119.201 63.334C119.753 62.35 120.515 61.588 121.487 61.048C122.459 60.496 123.569 60.22 124.817 60.22C126.329 60.22 127.601 60.586 128.633 61.318C129.677 62.05 130.367 63.064 130.703 64.36H127.301Z" fill="#EF5344"/>
<rect x="137.5" y="39.5" width="14" height="14" stroke="#EF5344"/>
<line x1="177" y1="186" x2="152" y2="186" stroke="#E5702A" stroke-width="2"/>
<path d="M4.2399 180.83L4.2399 183.386H8.3619V185.762H4.2399V188.534H8.9019V191H1.1619L1.1619 178.364H8.9019V180.83H4.2399ZM18.6402 191L16.0662 187.13L13.7982 191H10.3062L14.3562 184.574L10.2162 178.364H13.7982L16.3362 182.18L18.5682 178.364H22.0602L18.0462 184.736L22.2222 191H18.6402ZM33.3974 182.432C33.3974 183.164 33.2294 183.836 32.8934 184.448C32.5574 185.048 32.0414 185.534 31.3454 185.906C30.6494 186.278 29.7854 186.464 28.7534 186.464H26.8454V191H23.7674L23.7674 178.364H28.7534C29.7614 178.364 30.6134 178.538 31.3094 178.886C32.0054 179.234 32.5274 179.714 32.8754 180.326C33.2234 180.938 33.3974 181.64 33.3974 182.432ZM28.5194 184.016C29.1074 184.016 29.5454 183.878 29.8334 183.602C30.1214 183.326 30.2654 182.936 30.2654 182.432C30.2654 181.928 30.1214 181.538 29.8334 181.262C29.5454 180.986 29.1074 180.848 28.5194 180.848H26.8454V184.016H28.5194ZM38.0778 180.83V183.386H42.1998V185.762H38.0778V188.534H42.7398V191H34.9998V178.364H42.7398V180.83H38.0778ZM51.1821 191L48.5541 186.23H47.8161V191H44.7381V178.364H49.9041C50.9001 178.364 51.7461 178.538 52.4421 178.886C53.1501 179.234 53.6781 179.714 54.0261 180.326C54.3741 180.926 54.5481 181.598 54.5481 182.342C54.5481 183.182 54.3081 183.932 53.8281 184.592C53.3601 185.252 52.6641 185.72 51.7401 185.996L54.6561 191H51.1821ZM47.8161 184.052H49.7241C50.2881 184.052 50.7081 183.914 50.9841 183.638C51.2721 183.362 51.4161 182.972 51.4161 182.468C51.4161 181.988 51.2721 181.61 50.9841 181.334C50.7081 181.058 50.2881 180.92 49.7241 180.92H47.8161V184.052ZM59.5583 178.364V191H56.4803V178.364H59.5583ZM76.0989 178.364V191H73.0209V183.422L70.1949 191H67.7109L64.8669 183.404V191H61.7889V178.364H65.4249L68.9709 187.112L72.4809 178.364H76.0989ZM81.3903 180.83V183.386H85.5123V185.762H81.3903V188.534H86.0523V191H78.3123V178.364H86.0523V180.83H81.3903ZM99.3546 191H96.2766L91.1286 183.206V191H88.0506V178.364H91.1286L96.2766 186.194V178.364H99.3546V191ZM110.676 178.364V180.83H107.328V191H104.25V180.83H100.902V178.364H110.676ZM120.086 188.768H115.37L114.614 191H111.392L115.964 178.364H119.528L124.1 191H120.842L120.086 188.768ZM119.294 186.392L117.728 181.766L116.18 186.392H119.294ZM128.57 188.624L132.602 188.624V191L125.492 191V178.364H128.57V188.624Z" fill="#E5702A"/>
<rect x="137.5" y="178.5" width="14" height="14" stroke="#E5702A"/>
<line x1="245" y1="306" x2="270" y2="306" stroke="#F9A819" stroke-width="2"/>
<circle cx="274.5" cy="306.5" r="7.5" fill="#F9A819"/>
<path d="M296.746 304.432C296.746 305.164 296.578 305.836 296.242 306.448C295.906 307.048 295.39 307.534 294.694 307.906C293.998 308.278 293.134 308.464 292.102 308.464H290.194V313H287.116V300.364H292.102C293.11 300.364 293.962 300.538 294.658 300.886C295.354 301.234 295.876 301.714 296.224 302.326C296.572 302.938 296.746 303.64 296.746 304.432ZM291.868 306.016C292.456 306.016 292.894 305.878 293.182 305.602C293.47 305.326 293.614 304.936 293.614 304.432C293.614 303.928 293.47 303.538 293.182 303.262C292.894 302.986 292.456 302.848 291.868 302.848H290.194V306.016H291.868ZM304.792 313L302.164 308.23H301.426V313H298.348V300.364H303.514C304.51 300.364 305.356 300.538 306.052 300.886C306.76 301.234 307.288 301.714 307.636 302.326C307.984 302.926 308.158 303.598 308.158 304.342C308.158 305.182 307.918 305.932 307.438 306.592C306.97 307.252 306.274 307.72 305.35 307.996L308.266 313H304.792ZM301.426 306.052H303.334C303.898 306.052 304.318 305.914 304.594 305.638C304.882 305.362 305.026 304.972 305.026 304.468C305.026 303.988 304.882 303.61 304.594 303.334C304.318 303.058 303.898 302.92 303.334 302.92H301.426V306.052ZM313.169 300.364V313H310.091V300.364H313.169ZM326.703 313H323.625L318.477 305.206V313H315.399V300.364H318.477L323.625 308.194V300.364H326.703V313ZM338.024 300.364V302.83H334.676V313H331.598V302.83H328.25V300.364H338.024Z" fill="#F9A819"/>
<line x1="177" y1="307" x2="152" y2="307" stroke="#EF5344" stroke-width="2"/>
<path d="M103.259 305.52C103.991 305.676 104.579 306.042 105.023 306.618C105.467 307.182 105.689 307.83 105.689 308.562C105.689 309.618 105.317 310.458 104.573 311.082C103.841 311.694 102.815 312 101.495 312H95.6092V299.364H101.297C102.581 299.364 103.583 299.658 104.303 300.246C105.035 300.834 105.401 301.632 105.401 302.64C105.401 303.384 105.203 304.002 104.807 304.494C104.423 304.986 103.907 305.328 103.259 305.52ZM98.6872 304.476H100.703C101.207 304.476 101.591 304.368 101.855 304.152C102.131 303.924 102.269 303.594 102.269 303.162C102.269 302.73 102.131 302.4 101.855 302.172C101.591 301.944 101.207 301.83 100.703 301.83H98.6872V304.476ZM100.955 309.516C101.471 309.516 101.867 309.402 102.143 309.174C102.431 308.934 102.575 308.592 102.575 308.148C102.575 307.704 102.425 307.356 102.125 307.104C101.837 306.852 101.435 306.726 100.919 306.726H98.6872V309.516H100.955ZM107.06 309.534C107.468 309.21 107.654 309.06 107.618 309.084C108.794 308.112 109.718 307.314 110.39 306.69C111.074 306.066 111.65 305.412 112.118 304.728C112.586 304.044 112.82 303.378 112.82 302.73C112.82 302.238 112.706 301.854 112.478 301.578C112.25 301.302 111.908 301.164 111.452 301.164C110.996 301.164 110.636 301.338 110.372 301.686C110.12 302.022 109.994 302.502 109.994 303.126H107.024C107.048 302.106 107.264 301.254 107.672 300.57C108.092 299.886 108.638 299.382 109.31 299.058C109.994 298.734 110.75 298.572 111.578 298.572C113.006 298.572 114.08 298.938 114.8 299.67C115.532 300.402 115.898 301.356 115.898 302.532C115.898 303.816 115.46 305.01 114.584 306.114C113.708 307.206 112.592 308.274 111.236 309.318H116.096V311.82H107.06V309.534ZM125.408 305.52C126.14 305.676 126.728 306.042 127.172 306.618C127.616 307.182 127.838 307.83 127.838 308.562C127.838 309.618 127.466 310.458 126.722 311.082C125.99 311.694 124.964 312 123.644 312H117.758V299.364H123.446C124.73 299.364 125.732 299.658 126.452 300.246C127.184 300.834 127.55 301.632 127.55 302.64C127.55 303.384 127.352 304.002 126.956 304.494C126.572 304.986 126.056 305.328 125.408 305.52ZM120.836 304.476H122.852C123.356 304.476 123.74 304.368 124.004 304.152C124.28 303.924 124.418 303.594 124.418 303.162C124.418 302.73 124.28 302.4 124.004 302.172C123.74 301.944 123.356 301.83 122.852 301.83H120.836V304.476ZM123.104 309.516C123.62 309.516 124.016 309.402 124.292 309.174C124.58 308.934 124.724 308.592 124.724 308.148C124.724 307.704 124.574 307.356 124.274 307.104C123.986 306.852 123.584 306.726 123.068 306.726H120.836V309.516H123.104Z" fill="#EF5344"/>
<rect x="137.5" y="299.5" width="14" height="14" stroke="#EF5344"/>
<line x1="245" y1="427" x2="270" y2="427" stroke="#F9A819" stroke-width="2"/>
<circle cx="274.5" cy="427.5" r="7.5" fill="#E5702A"/>
<path d="M293.092 434.126C291.904 434.126 290.812 433.85 289.816 433.298C288.832 432.746 288.046 431.978 287.458 430.994C286.882 429.998 286.594 428.882 286.594 427.646C286.594 426.41 286.882 425.3 287.458 424.316C288.046 423.332 288.832 422.564 289.816 422.012C290.812 421.46 291.904 421.184 293.092 421.184C294.28 421.184 295.366 421.46 296.35 422.012C297.346 422.564 298.126 423.332 298.69 424.316C299.266 425.3 299.554 426.41 299.554 427.646C299.554 428.882 299.266 429.998 298.69 430.994C298.114 431.978 297.334 432.746 296.35 433.298C295.366 433.85 294.28 434.126 293.092 434.126ZM293.092 431.318C294.1 431.318 294.904 430.982 295.504 430.31C296.116 429.638 296.422 428.75 296.422 427.646C296.422 426.53 296.116 425.642 295.504 424.982C294.904 424.31 294.1 423.974 293.092 423.974C292.072 423.974 291.256 424.304 290.644 424.964C290.044 425.624 289.744 426.518 289.744 427.646C289.744 428.762 290.044 429.656 290.644 430.328C291.256 430.988 292.072 431.318 293.092 431.318ZM304.29 421.364V428.924C304.29 429.68 304.476 430.262 304.848 430.67C305.22 431.078 305.766 431.282 306.486 431.282C307.206 431.282 307.758 431.078 308.142 430.67C308.526 430.262 308.718 429.68 308.718 428.924V421.364H311.796V428.906C311.796 430.034 311.556 430.988 311.076 431.768C310.596 432.548 309.948 433.136 309.132 433.532C308.328 433.928 307.428 434.126 306.432 434.126C305.436 434.126 304.542 433.934 303.75 433.55C302.97 433.154 302.352 432.566 301.896 431.786C301.44 430.994 301.212 430.034 301.212 428.906V421.364H304.29ZM323.048 421.364V423.83H319.7V434H316.622V423.83H313.274V421.364H323.048ZM334.383 434.126C333.195 434.126 332.103 433.85 331.107 433.298C330.123 432.746 329.337 431.978 328.749 430.994C328.173 429.998 327.885 428.882 327.885 427.646C327.885 426.41 328.173 425.3 328.749 424.316C329.337 423.332 330.123 422.564 331.107 422.012C332.103 421.46 333.195 421.184 334.383 421.184C335.571 421.184 336.657 421.46 337.641 422.012C338.637 422.564 339.417 423.332 339.981 424.316C340.557 425.3 340.845 426.41 340.845 427.646C340.845 428.882 340.557 429.998 339.981 430.994C339.405 431.978 338.625 432.746 337.641 433.298C336.657 433.85 335.571 434.126 334.383 434.126ZM334.383 431.318C335.391 431.318 336.195 430.982 336.795 430.31C337.407 429.638 337.713 428.75 337.713 427.646C337.713 426.53 337.407 425.642 336.795 424.982C336.195 424.31 335.391 423.974 334.383 423.974C333.363 423.974 332.547 424.304 331.935 424.964C331.335 425.624 331.035 426.518 331.035 427.646C331.035 428.762 331.335 429.656 331.935 430.328C332.547 430.988 333.363 431.318 334.383 431.318ZM350.783 421.364V423.83H345.635V426.494H349.487V428.888H345.635V434H342.557V421.364H350.783ZM367.16 421.364V434H364.082V428.798H359.294V434H356.216V421.364H359.294V426.314H364.082V421.364H367.16ZM375.358 434.126C374.17 434.126 373.078 433.85 372.082 433.298C371.098 432.746 370.312 431.978 369.724 430.994C369.148 429.998 368.86 428.882 368.86 427.646C368.86 426.41 369.148 425.3 369.724 424.316C370.312 423.332 371.098 422.564 372.082 422.012C373.078 421.46 374.17 421.184 375.358 421.184C376.546 421.184 377.632 421.46 378.616 422.012C379.612 422.564 380.392 423.332 380.956 424.316C381.532 425.3 381.82 426.41 381.82 427.646C381.82 428.882 381.532 429.998 380.956 430.994C380.38 431.978 379.6 432.746 378.616 433.298C377.632 433.85 376.546 434.126 375.358 434.126ZM375.358 431.318C376.366 431.318 377.17 430.982 377.77 430.31C378.382 429.638 378.688 428.75 378.688 427.646C378.688 426.53 378.382 425.642 377.77 424.982C377.17 424.31 376.366 423.974 375.358 423.974C374.338 423.974 373.522 424.304 372.91 424.964C372.31 425.624 372.01 426.518 372.01 427.646C372.01 428.762 372.31 429.656 372.91 430.328C373.522 430.988 374.338 431.318 375.358 431.318ZM397.842 421.364V434H394.764V426.422L391.938 434H389.454L386.61 426.404V434H383.532V421.364H387.168L390.714 430.112L394.224 421.364H397.842ZM403.133 423.83V426.386H407.255V428.762H403.133V431.534H407.795V434H400.055V421.364H407.795V423.83H403.133Z" fill="#E5702A"/>
<line x1="177" y1="428" x2="152" y2="428" stroke="#F9A819" stroke-width="2"/>
<path d="M30.7384 424.36C30.5104 423.94 30.1804 423.622 29.7484 423.406C29.3284 423.178 28.8304 423.064 28.2544 423.064C27.2584 423.064 26.4604 423.394 25.8604 424.054C25.2604 424.702 24.9604 425.572 24.9604 426.664C24.9604 427.828 25.2724 428.74 25.8964 429.4C26.5324 430.048 27.4024 430.372 28.5064 430.372C29.2624 430.372 29.8984 430.18 30.4144 429.796C30.9424 429.412 31.3264 428.86 31.5664 428.14H27.6604V425.872H34.3564V428.734C34.1284 429.502 33.7384 430.216 33.1864 430.876C32.6464 431.536 31.9564 432.07 31.1164 432.478C30.2764 432.886 29.3284 433.09 28.2724 433.09C27.0244 433.09 25.9084 432.82 24.9244 432.28C23.9524 431.728 23.1904 430.966 22.6384 429.994C22.0984 429.022 21.8284 427.912 21.8284 426.664C21.8284 425.416 22.0984 424.306 22.6384 423.334C23.1904 422.35 23.9524 421.588 24.9244 421.048C25.8964 420.496 27.0064 420.22 28.2544 420.22C29.7664 420.22 31.0384 420.586 32.0704 421.318C33.1144 422.05 33.8044 423.064 34.1404 424.36H30.7384ZM39.1393 420.364V433H36.0613V420.364H39.1393ZM53.2319 420.364L48.7499 433H44.8979L40.4159 420.364H43.6919L46.8239 429.904L49.9739 420.364H53.2319ZM57.5963 422.83V425.386H61.7183V427.762H57.5963V430.534H62.2583V433H54.5183V420.364H62.2583V422.83H57.5963ZM72.1226 430.768H67.4066L66.6506 433H63.4286L68.0006 420.364H71.5646L76.1366 433H72.8786L72.1226 430.768ZM71.3306 428.392L69.7646 423.766L68.2166 428.392H71.3306ZM94.9161 420.364L91.6221 433H87.8961L85.8801 424.684L83.7921 433H80.0661L76.8621 420.364H80.1561L81.9741 429.562L84.2241 420.364H87.6081L89.7681 429.562L91.6041 420.364H94.9161ZM104.326 430.768H99.6098L98.8538 433H95.6318L100.204 420.364H103.768L108.34 433H105.082L104.326 430.768ZM103.534 428.392L101.968 423.766L100.42 428.392H103.534ZM120.567 420.364L116.193 428.824V433H113.115V428.824L108.741 420.364H112.233L114.681 425.656L117.111 420.364H120.567ZM126.379 433.126C125.455 433.126 124.627 432.976 123.895 432.676C123.163 432.376 122.575 431.932 122.131 431.344C121.699 430.756 121.471 430.048 121.447 429.22H124.723C124.771 429.688 124.933 430.048 125.209 430.3C125.485 430.54 125.845 430.66 126.289 430.66C126.745 430.66 127.105 430.558 127.369 430.354C127.633 430.138 127.765 429.844 127.765 429.472C127.765 429.16 127.657 428.902 127.441 428.698C127.237 428.494 126.979 428.326 126.667 428.194C126.367 428.062 125.935 427.912 125.371 427.744C124.555 427.492 123.889 427.24 123.373 426.988C122.857 426.736 122.413 426.364 122.041 425.872C121.669 425.38 121.483 424.738 121.483 423.946C121.483 422.77 121.909 421.852 122.761 421.192C123.613 420.52 124.723 420.184 126.091 420.184C127.483 420.184 128.605 420.52 129.457 421.192C130.309 421.852 130.765 422.776 130.825 423.964H127.495C127.471 423.556 127.321 423.238 127.045 423.01C126.769 422.77 126.415 422.65 125.983 422.65C125.611 422.65 125.311 422.752 125.083 422.956C124.855 423.148 124.741 423.43 124.741 423.802C124.741 424.21 124.933 424.528 125.317 424.756C125.701 424.984 126.301 425.23 127.117 425.494C127.933 425.77 128.593 426.034 129.097 426.286C129.613 426.538 130.057 426.904 130.429 427.384C130.801 427.864 130.987 428.482 130.987 429.238C130.987 429.958 130.801 430.612 130.429 431.2C130.069 431.788 129.541 432.256 128.845 432.604C128.149 432.952 127.327 433.126 126.379 433.126Z" fill="#F9A819"/>
<rect x="137.5" y="420.5" width="14" height="14" stroke="#F9A819"/>
<line x1="245" y1="547" x2="270" y2="547" stroke="#EF5344" stroke-width="2"/>
<circle cx="274.5" cy="547.5" r="7.5" fill="#EF5344"/>
<path d="M291.85 541.364C293.182 541.364 294.346 541.628 295.342 542.156C296.338 542.684 297.106 543.428 297.646 544.388C298.198 545.336 298.474 546.434 298.474 547.682C298.474 548.918 298.198 550.016 297.646 550.976C297.106 551.936 296.332 552.68 295.324 553.208C294.328 553.736 293.17 554 291.85 554H287.116V541.364H291.85ZM291.652 551.336C292.816 551.336 293.722 551.018 294.37 550.382C295.018 549.746 295.342 548.846 295.342 547.682C295.342 546.518 295.018 545.612 294.37 544.964C293.722 544.316 292.816 543.992 291.652 543.992H290.194V551.336H291.652ZM303.272 541.364V554H300.194V541.364H303.272ZM313.891 545.36C313.663 544.94 313.333 544.622 312.901 544.406C312.481 544.178 311.983 544.064 311.407 544.064C310.411 544.064 309.613 544.394 309.013 545.054C308.413 545.702 308.113 546.572 308.113 547.664C308.113 548.828 308.425 549.74 309.049 550.4C309.685 551.048 310.555 551.372 311.659 551.372C312.415 551.372 313.051 551.18 313.567 550.796C314.095 550.412 314.479 549.86 314.719 549.14H310.813V546.872H317.509V549.734C317.281 550.502 316.891 551.216 316.339 551.876C315.799 552.536 315.109 553.07 314.269 553.478C313.429 553.886 312.481 554.09 311.425 554.09C310.177 554.09 309.061 553.82 308.077 553.28C307.105 552.728 306.343 551.966 305.791 550.994C305.251 550.022 304.981 548.912 304.981 547.664C304.981 546.416 305.251 545.306 305.791 544.334C306.343 543.35 307.105 542.588 308.077 542.048C309.049 541.496 310.159 541.22 311.407 541.22C312.919 541.22 314.191 541.586 315.223 542.318C316.267 543.05 316.957 544.064 317.293 545.36H313.891ZM322.292 541.364V554H319.214V541.364H322.292ZM333.612 541.364V543.83H330.264V554H327.186V543.83H323.838V541.364H333.612ZM343.023 551.768H338.307L337.551 554H334.329L338.901 541.364H342.465L347.037 554H343.779L343.023 551.768ZM342.231 549.392L340.665 544.766L339.117 549.392H342.231ZM351.507 551.624H355.539V554H348.429V541.364H351.507V551.624ZM368.687 551.768H363.971L363.215 554H359.993L364.565 541.364H368.129L372.701 554H369.443L368.687 551.768ZM367.895 549.392L366.329 544.766L364.781 549.392H367.895ZM378.827 541.364C380.159 541.364 381.323 541.628 382.319 542.156C383.315 542.684 384.083 543.428 384.623 544.388C385.175 545.336 385.451 546.434 385.451 547.682C385.451 548.918 385.175 550.016 384.623 550.976C384.083 551.936 383.309 552.68 382.301 553.208C381.305 553.736 380.147 554 378.827 554H374.093V541.364H378.827ZM378.629 551.336C379.793 551.336 380.699 551.018 381.347 550.382C381.995 549.746 382.319 548.846 382.319 547.682C382.319 546.518 381.995 545.612 381.347 544.964C380.699 544.316 379.793 543.992 378.629 543.992H377.171V551.336H378.629ZM391.743 554.126C390.819 554.126 389.991 553.976 389.259 553.676C388.527 553.376 387.939 552.932 387.495 552.344C387.063 551.756 386.835 551.048 386.811 550.22H390.087C390.135 550.688 390.297 551.048 390.573 551.3C390.849 551.54 391.209 551.66 391.653 551.66C392.109 551.66 392.469 551.558 392.733 551.354C392.997 551.138 393.129 550.844 393.129 550.472C393.129 550.16 393.021 549.902 392.805 549.698C392.601 549.494 392.343 549.326 392.031 549.194C391.731 549.062 391.299 548.912 390.735 548.744C389.919 548.492 389.253 548.24 388.737 547.988C388.221 547.736 387.777 547.364 387.405 546.872C387.033 546.38 386.847 545.738 386.847 544.946C386.847 543.77 387.273 542.852 388.125 542.192C388.977 541.52 390.087 541.184 391.455 541.184C392.847 541.184 393.969 541.52 394.821 542.192C395.673 542.852 396.129 543.776 396.189 544.964H392.859C392.835 544.556 392.685 544.238 392.409 544.01C392.133 543.77 391.779 543.65 391.347 543.65C390.975 543.65 390.675 543.752 390.447 543.956C390.219 544.148 390.105 544.43 390.105 544.802C390.105 545.21 390.297 545.528 390.681 545.756C391.065 545.984 391.665 546.23 392.481 546.494C393.297 546.77 393.957 547.034 394.461 547.286C394.977 547.538 395.421 547.904 395.793 548.384C396.165 548.864 396.351 549.482 396.351 550.238C396.351 550.958 396.165 551.612 395.793 552.2C395.433 552.788 394.905 553.256 394.209 553.604C393.513 553.952 392.691 554.126 391.743 554.126Z" fill="#EF5344"/>
<line x1="177" y1="548" x2="152" y2="548" stroke="#E5702A" stroke-width="2"/>
<path d="M35.0708 553.126C34.1468 553.126 33.3188 552.976 32.5868 552.676C31.8548 552.376 31.2668 551.932 30.8228 551.344C30.3908 550.756 30.1628 550.048 30.1388 549.22H33.4148C33.4628 549.688 33.6248 550.048 33.9008 550.3C34.1768 550.54 34.5368 550.66 34.9808 550.66C35.4368 550.66 35.7968 550.558 36.0608 550.354C36.3248 550.138 36.4568 549.844 36.4568 549.472C36.4568 549.16 36.3488 548.902 36.1328 548.698C35.9288 548.494 35.6708 548.326 35.3588 548.194C35.0588 548.062 34.6268 547.912 34.0628 547.744C33.2468 547.492 32.5808 547.24 32.0648 546.988C31.5488 546.736 31.1048 546.364 30.7328 545.872C30.3608 545.38 30.1748 544.738 30.1748 543.946C30.1748 542.77 30.6008 541.852 31.4528 541.192C32.3048 540.52 33.4148 540.184 34.7828 540.184C36.1748 540.184 37.2968 540.52 38.1488 541.192C39.0008 541.852 39.4568 542.776 39.5168 543.964H36.1868C36.1628 543.556 36.0128 543.238 35.7368 543.01C35.4608 542.77 35.1068 542.65 34.6748 542.65C34.3028 542.65 34.0028 542.752 33.7748 542.956C33.5468 543.148 33.4328 543.43 33.4328 543.802C33.4328 544.21 33.6248 544.528 34.0088 544.756C34.3928 544.984 34.9928 545.23 35.8088 545.494C36.6248 545.77 37.2848 546.034 37.7888 546.286C38.3048 546.538 38.7488 546.904 39.1208 547.384C39.4928 547.864 39.6788 548.482 39.6788 549.238C39.6788 549.958 39.4928 550.612 39.1208 551.2C38.7608 551.788 38.2328 552.256 37.5368 552.604C36.8408 552.952 36.0188 553.126 35.0708 553.126ZM49.439 550.768H44.723L43.967 553H40.745L45.317 540.364H48.881L53.453 553H50.195L49.439 550.768ZM48.647 548.392L47.081 543.766L45.533 548.392H48.647ZM69.1545 540.364V553H66.0765V545.422L63.2505 553H60.7665L57.9225 545.404V553H54.8445V540.364H58.4805L62.0265 549.112L65.5365 540.364H69.1545ZM80.998 544.432C80.998 545.164 80.83 545.836 80.494 546.448C80.158 547.048 79.642 547.534 78.946 547.906C78.25 548.278 77.386 548.464 76.354 548.464H74.446V553H71.368V540.364H76.354C77.362 540.364 78.214 540.538 78.91 540.886C79.606 541.234 80.128 541.714 80.476 542.326C80.824 542.938 80.998 543.64 80.998 544.432ZM76.12 546.016C76.708 546.016 77.146 545.878 77.434 545.602C77.722 545.326 77.866 544.936 77.866 544.432C77.866 543.928 77.722 543.538 77.434 543.262C77.146 542.986 76.708 542.848 76.12 542.848H74.446V546.016H76.12ZM85.6784 550.624H89.7104V553H82.6004V540.364H85.6784V550.624ZM94.2565 540.364V553H91.1785V540.364H94.2565ZM107.791 553H104.713L99.5651 545.206V553H96.4871V540.364H99.5651L104.713 548.194V540.364H107.791V553ZM118.41 544.36C118.182 543.94 117.852 543.622 117.42 543.406C117 543.178 116.502 543.064 115.926 543.064C114.93 543.064 114.132 543.394 113.532 544.054C112.932 544.702 112.632 545.572 112.632 546.664C112.632 547.828 112.944 548.74 113.568 549.4C114.204 550.048 115.074 550.372 116.178 550.372C116.934 550.372 117.57 550.18 118.086 549.796C118.614 549.412 118.998 548.86 119.238 548.14H115.332V545.872H122.028V548.734C121.8 549.502 121.41 550.216 120.858 550.876C120.318 551.536 119.628 552.07 118.788 552.478C117.948 552.886 117 553.09 115.944 553.09C114.696 553.09 113.58 552.82 112.596 552.28C111.624 551.728 110.862 550.966 110.31 549.994C109.77 549.022 109.5 547.912 109.5 546.664C109.5 545.416 109.77 544.306 110.31 543.334C110.862 542.35 111.624 541.588 112.596 541.048C113.568 540.496 114.678 540.22 115.926 540.22C117.438 540.22 118.71 540.586 119.742 541.318C120.786 542.05 121.476 543.064 121.812 544.36H118.41Z" fill="#E5702A"/>
<rect x="137.5" y="540.5" width="14" height="14" stroke="#E5702A"/>
<line x1="177" y1="667" x2="152" y2="667" stroke="#F9A819" stroke-width="2"/>
<path d="M58.2594 661.83V664.386H62.3814V666.762H58.2594V669.534H62.9214V672H55.1814V659.364H62.9214V661.83H58.2594ZM76.7817 659.364L72.2997 672H68.4477L63.9657 659.364H67.2417L70.3737 668.904L73.5237 659.364H76.7817ZM81.1461 661.83V664.386H85.2681V666.762H81.1461V669.534H85.8081V672H78.0681V659.364H85.8081V661.83H81.1461ZM99.1104 672H96.0324L90.8844 664.206V672H87.8064V659.364H90.8844L96.0324 667.194V659.364H99.1104V672ZM110.432 659.364V661.83H107.084V672H104.006V661.83H100.658V659.364H110.432ZM116.548 672.126C115.624 672.126 114.796 671.976 114.064 671.676C113.332 671.376 112.744 670.932 112.3 670.344C111.868 669.756 111.64 669.048 111.616 668.22H114.892C114.94 668.688 115.102 669.048 115.378 669.3C115.654 669.54 116.014 669.66 116.458 669.66C116.914 669.66 117.274 669.558 117.538 669.354C117.802 669.138 117.934 668.844 117.934 668.472C117.934 668.16 117.826 667.902 117.61 667.698C117.406 667.494 117.148 667.326 116.836 667.194C116.536 667.062 116.104 666.912 115.54 666.744C114.724 666.492 114.058 666.24 113.542 665.988C113.026 665.736 112.582 665.364 112.21 664.872C111.838 664.38 111.652 663.738 111.652 662.946C111.652 661.77 112.078 660.852 112.93 660.192C113.782 659.52 114.892 659.184 116.26 659.184C117.652 659.184 118.774 659.52 119.626 660.192C120.478 660.852 120.934 661.776 120.994 662.964H117.664C117.64 662.556 117.49 662.238 117.214 662.01C116.938 661.77 116.584 661.65 116.152 661.65C115.78 661.65 115.48 661.752 115.252 661.956C115.024 662.148 114.91 662.43 114.91 662.802C114.91 663.21 115.102 663.528 115.486 663.756C115.87 663.984 116.47 664.23 117.286 664.494C118.102 664.77 118.762 665.034 119.266 665.286C119.782 665.538 120.226 665.904 120.598 666.384C120.97 666.864 121.156 667.482 121.156 668.238C121.156 668.958 120.97 669.612 120.598 670.2C120.238 670.788 119.71 671.256 119.014 671.604C118.318 671.952 117.496 672.126 116.548 672.126Z" fill="#F9A819"/>
<rect x="137.5" y="659.5" width="14" height="14" stroke="#F9A819"/>
<defs>
<linearGradient id="paint0_linear_7_105" x1="241" y1="30" x2="953" y2="30" gradientUnits="userSpaceOnUse">
<stop stop-color="#E5702A"/>
<stop offset="0.5" stop-color="#F9A819"/>
<stop offset="0.75" stop-color="#EF5344"/>
<stop offset="1" stop-color="#692C2B"/>
</linearGradient>
</defs>
</svg>
